HIERARCHY
ROOT Pelvis
{
	OFFSET 0.000000 0.941512 0.000000
	CHANNELS 6 Xposition Yposition Zposition Zrotation Yrotation Xrotation 
	JOINT Pelvis_L_Hip
	{
		OFFSET 0.000000 0.000000 0.000000
		CHANNELS 3 Zrotation Yrotation Xrotation
		JOINT L_Hip
		{
			OFFSET 0.062321 -0.080322 -0.016990
			CHANNELS 3 Zrotation Yrotation Xrotation
			JOINT L_Knee
			{
				OFFSET 0.093051 -0.381305 -0.029784
				CHANNELS 3 Zrotation Yrotation Xrotation
				JOINT L_Ankle
				{
					OFFSET -0.010371 -0.431000 -0.033614
					CHANNELS 3 Zrotation Yrotation Xrotation
					End Site #name: L_Foot
					{
						OFFSET 0.069299 -0.038670 0.119418
					}
				}
			}
		}
	}
	JOINT Pelvis_R_Hip
	{
		OFFSET 0.000000 0.000000 0.000000
		CHANNELS 3 Zrotation Yrotation Xrotation
		JOINT R_Hip
		{
			OFFSET -0.055334 -0.094904 -0.002373
			CHANNELS 3 Zrotation Yrotation Xrotation
			JOINT R_Knee
			{
				OFFSET -0.064207 -0.384370 -0.019592
				CHANNELS 3 Zrotation Yrotation Xrotation
				JOINT R_Ankle
				{
					OFFSET 0.025418 -0.419734 -0.065953
					CHANNELS 3 Zrotation Yrotation Xrotation
					End Site #name: R_Foot
					{
						OFFSET -0.057233 -0.039888 0.132134
					}
				}
			}
		}
	}
	JOINT Pelvis_Spine1
	{
		OFFSET 0.000000 0.000000 0.000000
		CHANNELS 3 Zrotation Yrotation Xrotation
		JOINT Spine1
		{
			OFFSET -0.005562 0.124093 -0.043360
			CHANNELS 3 Zrotation Yrotation Xrotation
			JOINT Spine2
			{
				OFFSET 0.012244 0.139499 0.029894
				CHANNELS 3 Zrotation Yrotation Xrotation
				JOINT Spine3
				{
					OFFSET -0.002556 0.056561 0.009225
					CHANNELS 3 Zrotation Yrotation Xrotation
					JOINT Spine3_Neck
					{
						OFFSET 0.000000 0.000000 0.000000
						CHANNELS 3 Zrotation Yrotation Xrotation
						JOINT Neck
						{
							OFFSET -0.005205 0.217920 -0.024551
							CHANNELS 3 Zrotation Yrotation Xrotation
							End Site #name: Head
							{
								OFFSET 0.002365 0.091850 0.046637
							}
						}
					}
					JOINT Spine3_L_Collar
					{
						OFFSET 0.000000 0.000000 0.000000
						CHANNELS 3 Zrotation Yrotation Xrotation
						JOINT L_Collar
						{
							OFFSET 0.072225 0.116603 -0.009480
							CHANNELS 3 Zrotation Yrotation Xrotation
							JOINT L_Shoulder
							{
								OFFSET 0.115937 -0.058643 -0.021018
								CHANNELS 3 Zrotation Yrotation Xrotation
								JOINT L_Elbow
								{
									OFFSET 0.021994 -0.254722 -0.024492
									CHANNELS 3 Zrotation Yrotation Xrotation
									End Site #name: L_Wrist
									{
										OFFSET 0.048810 -0.240214 0.103329
									}
								}
							}
						}
					}
					JOINT Spine3_R_Collar
					{
						OFFSET 0.000000 0.000000 0.000000
						CHANNELS 3 Zrotation Yrotation Xrotation
						JOINT R_Collar
						{
							OFFSET -0.073372 0.120704 -0.024611
							CHANNELS 3 Zrotation Yrotation Xrotation
							JOINT R_Shoulder
							{
								OFFSET -0.108089 -0.054969 -0.020504
								CHANNELS 3 Zrotation Yrotation Xrotation
								JOINT R_Elbow
								{
									OFFSET -0.033684 -0.260739 0.009889
									CHANNELS 3 Zrotation Yrotation Xrotation
									End Site #name: R_Wrist
									{
										OFFSET -0.067980 -0.232763 0.118463
									}
								}
							}
						}
					}
				}
			}
		}
	}
}
MOTION
Frames: 14
Frame Time: 0.041667
0.000000 0.944128 0.000000 -3.982092 -7.217124 -3.497487 0.000000 0.000000 0.000000 5.141309 -5.319872 -26.871180 5.075216 -0.588968 2.488080 -0.112756 2.284664 1.603844 0.000000 0.000000 0.000000 7.013761 -5.227176 22.369298 -5.289133 0.954816 1.267748 -1.699216 8.080204 -7.894065 0.000000 0.000000 0.000000 4.615362 -2.459894 12.703065 -3.124657 0.260170 -3.495932 3.538318 5.324467 4.579444 0.000000 0.000000 0.000000 -10.532394 5.048704 -4.440127 0.000000 0.000000 0.000000 14.388059 -8.885825 -3.211600 -13.077305 -0.221225 -7.855873 1.219449 0.516068 -0.040418 0.000000 0.000000 0.000000 -25.819388 20.406332 -12.085723 17.321603 -1.014873 5.476371 -1.807027 2.007992 -10.322899 
0.010859 0.928206 0.086235 -3.440010 -7.582837 -4.335404 0.000000 0.000000 0.000000 4.187362 -5.700765 -28.059302 2.660676 -0.736471 12.274443 1.141084 8.228908 3.261620 0.000000 0.000000 0.000000 4.577069 -5.110003 25.199861 -5.380505 1.730458 7.702759 -1.729219 6.651370 -7.285136 0.000000 0.000000 0.000000 4.091768 -2.167853 11.803414 -2.696952 0.239731 -2.940303 3.446815 5.433613 4.511709 0.000000 0.000000 0.000000 -10.168910 4.949931 -3.572685 0.000000 0.000000 0.000000 13.906980 -8.813213 -3.223603 -13.065439 -0.099426 -7.253006 1.230729 0.980479 2.411617 0.000000 0.000000 0.000000 -25.053414 20.232419 -11.856382 16.858332 -1.412662 6.927148 -2.358144 1.595728 -10.102809 
0.025116 0.922097 0.172795 -2.649241 -7.147797 -4.479953 0.000000 0.000000 0.000000 3.775037 -6.096874 -29.585898 -0.545703 -0.158949 21.613092 -2.464740 7.391306 9.627175 0.000000 0.000000 0.000000 1.967160 -3.766169 21.362875 -2.511320 2.710249 22.916138 0.956015 0.486793 1.717131 0.000000 0.000000 0.000000 3.397067 -1.809820 10.412926 -2.027413 0.161324 -2.725127 3.186353 5.041782 4.608346 0.000000 0.000000 0.000000 -9.171645 4.514428 -3.045440 0.000000 0.000000 0.000000 12.064418 -8.338364 -3.097536 -11.628275 -0.023223 -6.560955 0.624069 1.283161 5.297079 0.000000 0.000000 0.000000 -22.524574 18.562225 -10.264443 14.995638 -1.580514 7.782914 -2.104454 1.392330 -8.864749 
0.036614 0.932417 0.254287 -0.611301 -5.528466 -5.494205 0.000000 0.000000 0.000000 1.111428 -6.076657 -26.455447 -4.029634 0.895851 25.692958 -0.732700 6.217403 5.368560 0.000000 0.000000 0.000000 -0.299587 -2.081698 13.477015 2.393179 2.231716 41.030855 3.345182 -11.440685 18.410570 0.000000 0.000000 0.000000 1.270160 -1.159616 10.154399 -1.512640 0.088046 -2.761038 2.646038 4.216961 4.907732 0.000000 0.000000 0.000000 -7.480481 3.761759 -1.955336 0.000000 0.000000 0.000000 13.381258 -9.382475 -3.652547 -12.660452 0.136390 -6.015206 0.765268 1.811967 7.860259 0.000000 0.000000 0.000000 -21.683468 16.345516 -8.419027 17.502714 -1.587957 7.409072 -4.282391 -0.567973 -6.410495 
0.045497 0.947875 0.323279 0.665034 -5.273013 -6.219626 0.000000 0.000000 0.000000 -2.831030 -5.089567 -19.792392 -2.628081 0.422539 23.799466 0.663564 4.971036 1.858685 0.000000 0.000000 0.000000 -1.256596 -0.402305 3.067648 5.569185 1.337317 55.540379 2.457818 -16.460330 23.534511 0.000000 0.000000 0.000000 0.588070 -1.064440 11.604640 -1.754772 0.088590 -3.332246 2.363435 3.395011 5.180683 0.000000 0.000000 0.000000 -6.966689 3.486898 -2.412213 0.000000 0.000000 0.000000 13.710200 -10.621256 -4.522686 -11.668829 0.372496 -4.567434 -0.447146 1.415013 7.997825 0.000000 0.000000 0.000000 -20.869973 16.200890 -8.231841 17.355330 -1.572439 7.373079 -3.668506 -0.590969 -4.967597 
0.050946 0.968298 0.387757 0.272814 -6.332297 -6.133038 0.000000 0.000000 0.000000 -4.941018 -3.263964 -12.428956 0.267855 -0.357237 18.959607 0.906668 3.674005 0.552767 0.000000 0.000000 0.000000 0.418808 1.301729 -7.759019 7.445915 0.589515 62.162280 0.088843 -17.696335 18.832540 0.000000 0.000000 0.000000 2.249518 -1.645235 12.534966 -2.342404 0.143142 -3.723688 2.106084 2.824592 5.133335 0.000000 0.000000 0.000000 -7.475567 3.719519 -2.687868 0.000000 0.000000 0.000000 13.786692 -10.455763 -4.491060 -11.582254 0.556260 -3.646692 -0.887823 1.067222 7.038117 0.000000 0.000000 0.000000 -20.918894 15.888157 -7.829850 17.643108 -1.400139 6.787981 -2.743467 -0.104477 -4.849818 
0.052969 0.986335 0.451976 -0.581399 -6.455240 -5.757687 0.000000 0.000000 0.000000 -5.400051 -0.795905 -3.860225 1.992590 -0.562932 10.788220 0.329874 1.314950 0.173052 0.000000 0.000000 0.000000 2.140351 2.995306 -16.177900 8.372386 -0.323808 59.017746 -1.475802 -19.067183 16.229800 0.000000 0.000000 0.000000 3.648997 -2.112941 12.636078 -2.623146 0.198339 -3.424238 2.346973 2.104479 4.457554 0.000000 0.000000 0.000000 -7.508883 3.804307 -1.445261 0.000000 0.000000 0.000000 14.859511 -10.641246 -4.616036 -12.991704 0.832080 -2.791639 -1.142084 0.655828 5.472197 0.000000 0.000000 0.000000 -21.557194 15.102809 -7.066189 19.421877 -1.537775 7.131726 -2.992965 0.102845 -6.128690 
0.055200 0.992480 0.516045 -1.501703 -5.736155 -5.329059 0.000000 0.000000 0.000000 -5.645955 1.137250 2.513260 3.549897 -0.599258 5.747975 -0.013625 -1.285185 -0.710901 0.000000 0.000000 0.000000 2.859193 4.418124 -22.598749 8.267499 -0.793877 49.772651 -2.373489 -19.089105 13.325490 0.000000 0.000000 0.000000 4.896805 -2.609277 13.117543 -2.486433 0.152859 -3.850541 2.412516 1.255152 4.270574 0.000000 0.000000 0.000000 -7.160162 3.641514 -1.188907 0.000000 0.000000 0.000000 16.404507 -10.550930 -4.482714 -14.720124 0.891070 -3.173625 -1.502417 0.115943 3.552137 0.000000 0.000000 0.000000 -21.806084 13.422910 -5.631917 20.482192 -1.386695 6.555962 -3.025739 0.445711 -7.446448 
0.056465 0.983590 0.579194 -2.241226 -4.817575 -4.803008 0.000000 0.000000 0.000000 -5.368061 2.719101 7.782969 4.454029 -0.498674 2.155488 0.357049 -3.411744 -2.500001 0.000000 0.000000 0.000000 3.243390 5.394831 -26.900620 5.552721 0.098984 35.508275 -1.978611 -18.484471 13.571447 0.000000 0.000000 0.000000 5.691662 -3.023960 13.941182 -2.216732 0.089060 -4.313074 2.699892 0.598285 4.239309 0.000000 0.000000 0.000000 -6.878664 3.461855 -1.809737 0.000000 0.000000 0.000000 17.304320 -10.876671 -4.666005 -15.277282 0.716224 -4.153329 -1.858617 -0.420270 1.734940 0.000000 0.000000 0.000000 -21.631473 12.113052 -4.576358 20.646115 -1.109220 5.661787 -3.598960 0.353009 -8.363486 
0.055241 0.964871 0.643851 -2.148633 -4.217923 -4.139833 0.000000 0.000000 0.000000 -5.204122 4.263401 12.858769 4.704913 -0.307748 -1.123635 0.753612 -5.378061 -4.149518 0.000000 0.000000 0.000000 3.021316 5.865790 -29.398549 0.722099 1.088990 18.866248 -0.608539 -16.038480 14.017742 0.000000 0.000000 0.000000 5.588635 -3.037530 14.081795 -2.225374 0.111659 -3.948538 3.125672 0.240114 4.207405 0.000000 0.000000 0.000000 -6.818022 3.387803 -2.571514 0.000000 0.000000 0.000000 17.771251 -11.732717 -5.281055 -14.724624 0.372321 -5.558708 -2.244274 -0.728371 1.072925 0.000000 0.000000 0.000000 -20.856152 11.770440 -4.368468 20.011730 -0.851866 4.886230 -3.982124 0.017524 -7.972401 
0.052616 0.943767 0.711923 -0.891263 -3.886173 -3.980375 0.000000 0.000000 0.000000 -5.876857 5.935259 17.617330 4.739962 -0.245675 -2.076979 2.068220 -6.747447 -7.019870 0.000000 0.000000 0.000000 1.804347 5.793228 -30.469720 -3.599474 1.049957 5.092921 1.155769 -10.178998 11.463156 0.000000 0.000000 0.000000 4.622126 -2.702029 14.022347 -2.577375 0.192240 -3.395026 3.490158 0.185779 4.146018 0.000000 0.000000 0.000000 -6.942740 3.438290 -2.753758 0.000000 0.000000 0.000000 18.109578 -12.713402 -6.001910 -14.286136 0.044402 -6.978595 -2.265462 -0.546007 1.927721 0.000000 0.000000 0.000000 -20.369129 12.208422 -4.769947 19.937796 -0.995838 5.365844 -4.579316 -0.536279 -7.188759 
0.048068 0.925691 0.782670 -0.460867 -3.146440 -3.377920 0.000000 0.000000 0.000000 -5.784440 6.781123 20.332825 5.136185 -0.448497 0.529798 3.711817 -7.166935 -9.961988 0.000000 0.000000 0.000000 0.150079 5.804495 -32.773377 -3.468293 0.661165 1.315199 1.550812 -9.666093 11.993184 0.000000 0.000000 0.000000 4.882018 -2.734963 13.361473 -2.687509 0.219039 -3.205257 3.429347 0.547105 3.889772 0.000000 0.000000 0.000000 -6.873487 3.421303 -2.424269 0.000000 0.000000 0.000000 17.767756 -13.024708 -6.166555 -14.121257 -0.291370 -8.464020 -2.074665 -0.084426 3.667835 0.000000 0.000000 0.000000 -20.090781 12.467171 -5.097008 19.829884 -1.390417 6.640872 -4.878295 -1.025301 -5.932250 
0.039315 0.914224 0.860453 -1.135798 -2.123465 -3.289704 0.000000 0.000000 0.000000 -4.248583 6.832647 22.040248 5.941943 -0.983235 6.739229 3.974466 -7.528591 -10.460928 0.000000 0.000000 0.000000 0.647878 6.287099 -34.988800 -1.498987 1.016045 10.078669 -0.363207 -13.223727 11.263176 0.000000 0.000000 0.000000 6.192348 -3.102922 12.570905 -2.545478 0.230551 -2.735108 3.130271 0.803630 3.882711 0.000000 0.000000 0.000000 -6.392354 3.175694 -2.658761 0.000000 0.000000 0.000000 16.849821 -12.665053 -5.831923 -14.045311 -0.320918 -8.522104 -1.789393 -0.027377 3.409070 0.000000 0.000000 0.000000 -19.802125 12.393733 -5.182015 19.158004 -1.610998 7.391841 -4.354774 -1.244894 -3.879132 
0.024612 0.911660 0.945727 -1.754301 -2.067424 -3.332546 0.000000 0.000000 0.000000 -2.458048 6.216173 21.728563 5.730982 -1.712409 17.002927 1.112014 -7.432800 -5.609358 0.000000 0.000000 0.000000 3.459331 6.664203 -33.206588 -1.856261 1.499186 14.729505 2.541524 -10.927784 16.216024 0.000000 0.000000 0.000000 6.874065 -3.174169 11.522944 -2.229479 0.180060 -2.839557 2.856402 0.926252 3.842877 0.000000 0.000000 0.000000 -6.223833 3.111402 -2.256224 0.000000 0.000000 0.000000 15.658924 -11.433420 -4.976446 -13.803284 0.121506 -6.333088 -1.962424 -0.275545 2.586581 0.000000 0.000000 0.000000 -19.234084 11.950669 -4.900813 18.758403 -1.862522 8.275165 -3.552783 -1.271393 -2.070247 
